<?xml version="1.0" standalone="no"?>
<!DOCTYPE svg PUBLIC "-//W3C//DTD SVG 20010904//EN"
 "http://www.w3.org/TR/2001/REC-SVG-20010904/DTD/svg10.dtd">
<svg version="1.0" xmlns="http://www.w3.org/2000/svg"
 width="512.000000pt" height="512.000000pt" viewBox="0 0 512.000000 512.000000"
 preserveAspectRatio="xMidYMid meet">
<metadata>
Created by potrace 1.11, written by Peter Selinger 2001-2013
</metadata>
<g transform="translate(0.000000,512.000000) scale(0.100000,-0.100000)"
fill="#000000" stroke="none">
<path d="M2389 5076 c-2 -2 -33 -6 -69 -9 -64 -6 -185 -22 -225 -31 -263 -57
-435 -115 -640 -216 -335 -165 -627 -397 -857 -683 -72 -90 -198 -270 -198
-284 0 -3 -8 -17 -18 -31 -63 -91 -178 -352 -232 -528 -34 -113 -32 -103 -59
-239 -19 -98 -23 -119 -40 -260 -8 -63 -6 -461 2 -510 2 -11 7 -45 11 -75 35
-263 113 -513 236 -765 261 -533 695 -953 1230 -1192 151 -68 354 -137 463
-159 266 -52 366 -62 607 -59 118 2 231 6 250 9 19 3 69 11 110 17 155 23 417
97 572 160 90 38 294 145 387 204 511 325 888 822 1065 1406 32 109 67 267 81
369 3 25 8 61 11 80 3 19 7 127 9 240 4 303 -29 533 -115 804 -205 640 -658
1173 -1259 1480 -199 102 -456 192 -646 226 -27 5 -61 11 -74 14 -13 3 -49 8
-80 12 -31 3 -65 8 -76 11 -23 5 -441 14 -446 9z"/>
</g>
</svg>
